<svg width="97" height="96" viewBox="0 0 97 96" fill="none" xmlns="http://www.w3.org/2000/svg">
<path d="M47.1443 0L5.93563 23.4503V43.6952L17.4671 37.1156V30.536L47.1443 13.4966L57.4887 18.8952L42.5654 28.5115L53.7579 35.766L70.0379 25.9809L77.8387 30.536V38.9714L61.8979 48.5877L34.2558 33.0666L0 52.6367V65.6272L5.93563 62.0843V70.8571L47.1443 95.3197L89.3701 71.8694V51.287L77.8387 57.0231V65.6272L47.1443 81.6544L37.6472 76.2557L53.7579 66.4707L41.7172 60.0598L25.6068 69.17L18.3148 65.6272L17.4671 57.0231L34.2558 46.9007L61.8979 62.0843L96.6622 41.3333V28.5115L89.3701 32.2231V23.4503L47.1443 0Z" fill="#FF7801"/>
</svg>
